<svg width="704" height="176" viewBox="0 0 704 176" fill="none" xmlns="http://www.w3.org/2000/svg">
<path d="M228.904 35.0089L227.955 35.1638L227.138 35.1121L226.802 35.3228L225.245 35.6939L224.293 35.7128L223.214 36.2104L223.084 36.553L223.223 36.6863L222.077 37.2532L221.262 37.2694L220.927 37.5481L219.298 37.7166L217.742 38.1556L217.33 37.9598L217.799 37.6104L217.796 37.4064L216.846 37.5613L216.51 37.772L215.493 37.9283L215.422 37.7937L214.405 37.95L214.267 37.8167L212.972 37.7064L212.162 37.9946L211.346 38.0108L210.436 36.6687L209.885 36.2716L209.701 37.3634L209.432 37.5048L209.154 37.1703L209.018 37.173L209.166 37.8502L208.481 37.5918L208.28 37.7318L207.773 39.7143L207.503 39.7877L207.585 40.5342L207.385 40.7422L205.141 40.7868L205.145 40.9908L203.934 41.695L202.987 41.9859L202.711 41.7874L201.697 42.0796L201.974 42.3462L201.644 42.8968L201.375 43.0382L201.096 42.7037L200.084 43.1319L199.879 43.068L194.896 45.6836L193.95 46.0425L193.016 47.0133L192.955 47.3546L192.683 47.36L192.831 48.0372L193.184 48.7103L193.459 48.8409L195.498 48.8003L197.596 48.2144L203.363 47.4875L204.315 47.4686L205.807 47.2349L204.801 51.6077L204.573 53.9247L204.31 54.4061L203.585 59.2494L203.323 59.7988L202.765 66.2711L202.801 68.1748L202.066 72.4743L201.542 73.5729L200.918 76.5099L200.25 77.2033L198.968 77.7049L198.363 78.125L196.26 78.371L195.847 78.1071L195.026 77.8514L193.447 77.0667L192.835 77.0788L192.695 76.8776L191.734 76.4206L191.388 76.0874L190.362 75.7678L189.383 74.359L189.176 74.2271L188.976 74.4351L188.636 74.4418L188.961 73.6192L188.93 71.9875L188.593 72.1303L188.04 71.6652L188.155 70.5747L188.007 69.8975L188.331 69.0749L188.252 68.4643L187.976 68.2658L188.102 67.7192L188.302 67.5111L188.417 66.4206L188.213 66.4247L187.358 67.938L187.232 68.4846L186.64 69.5846L186.064 71.5004L185.603 72.2578L185.363 73.9629L185.437 74.3015L185.645 74.5014L185.247 75.0534L185.456 75.3213L185.396 75.7306L185.603 75.8625L185.828 77.0142L186.245 77.482L186.813 78.763L186.824 79.3069L187.374 79.636L188.006 80.7116L189.593 81.9043L190.211 82.232L191.374 82.549L191.721 82.9502L194.589 83.5732L195.341 83.7623L195.881 83.5475L196.629 83.5326L197.177 83.7258L197.31 83.5871L198.19 83.3655L199.414 83.3412L200.831 82.7689L202.11 82.0633L202.239 81.6526L202.971 80.8219L203.107 80.8192L204.167 79.3018L204.218 78.4166L205.266 76.2874L205.709 74.5102L205.764 73.829L206.028 73.4156L206.086 72.8704L206.351 72.525L206.908 69.5894L206.886 68.4336L207.217 67.9509L207.406 67.131L207.797 66.239L207.724 65.9684L208.043 64.8738L208.027 63.99L209.063 61.2488L209.058 60.9769L209.26 60.8369L209.252 60.4289L209.85 59.6689L209.843 59.3289L210.362 57.9584L210.627 57.613L211.814 52.0123L212.327 50.3698L212.439 49.0753L212.938 46.6849L214.492 46.1779L216.524 45.7293L218.619 45.0075L219.156 44.6568L221.793 43.7881L222.398 43.436L222.661 42.9547L223.74 42.4571L223.878 42.5904L224.552 42.2369L224.893 42.2982L226.035 41.5273L226.511 41.5178L227.113 41.0297L227.591 41.0882L229.68 40.0945L232.704 38.1299L233.854 37.835L234.323 37.4176L235 37.2681L235.335 36.9894L235.339 37.1933L236.278 36.4945L235.795 36.164L233.128 35.4009L229.856 34.99L228.904 35.0089Z" fill="#460073"/>
<path d="M251.036 59.3934C250.951 54.8382 250.303 49.342 245.816 49.4313C244.72 49.045 243.898 48.7213 243.349 48.4602L241.3 48.0249C240.541 47.4278 240.057 47.0294 239.852 46.9655C238.993 48.2748 238.392 48.8989 238.052 48.9057C237.781 48.9111 237.165 48.7193 236.893 48.7247C235.941 48.7436 227.268 57.6899 226.212 59.4113C223.905 63.266 223.916 63.8779 222.177 65.4088C222.181 65.6127 222.544 66.8297 222.549 67.1017C222.565 67.9855 221.215 68.4885 220.876 68.5633C220.891 69.3791 220.523 71.4949 220.538 72.3107C220.542 72.5147 220.958 72.9145 220.963 73.1864C220.967 73.3904 220.836 73.6651 220.638 74.0091C220.987 74.4782 220.935 78.9001 223.722 78.8447C223.79 78.8433 223.858 78.842 223.926 78.8406L226.481 80.8982C226.757 81.0967 227.508 81.2178 228.663 81.1948C231.043 81.1475 232.796 80.3644 234.06 78.843C235.213 78.684 235.824 78.6039 235.958 78.5332C245.722 73.3059 248.603 71.0041 249.659 65.6781C250.641 63.6861 251.079 61.637 251.036 59.3934ZM243.405 58.6611C242.865 58.8759 242.609 59.6971 242.638 61.2609C242.033 61.613 241.298 65.9125 241.036 66.4618C239.988 68.591 239.332 69.8963 238.999 70.243C237.989 70.8072 237.18 71.1634 236.436 71.3823C233.348 73.5521 230.513 74.6967 227.998 74.7468C227.25 74.7617 226.21 73.6942 226.195 72.9463C226.186 72.4704 227.277 68.98 227.544 68.7026C229.932 65.5265 231.981 62.3571 237.263 57.5591C239.47 55.5428 240.88 54.5625 241.491 54.5503C242.239 54.5355 242.809 55.8844 242.824 56.7003C242.831 57.0402 242.766 57.2455 242.634 57.4522C242.842 57.6521 243.118 57.8506 243.391 57.9132L243.405 58.6611Z" fill="#460073"/>
<path d="M270.991 43.9653C270.982 43.4894 270.072 42.0793 269.995 41.6047C269.846 40.9275 265.964 37.06 265.149 37.0762C264.265 37.0938 263.578 40.3721 263.603 41.6639C263.636 43.4316 265.631 48.2208 266.854 48.1965C267.466 48.1843 268.54 47.4148 270.077 45.9559C270.138 45.6146 270.997 44.2373 270.991 43.9653ZM263.055 59.4943C259.687 57.6569 258.728 57.268 258.524 57.272C258.048 57.2815 257.173 57.775 255.83 58.6859C255.775 59.3671 255.58 59.8471 255.246 60.1938C252.111 63.4528 252.245 63.3141 251.416 66.2552C250.855 68.9869 249.693 68.67 249.725 70.3696C249.762 72.3413 250.71 72.1184 250.862 72.9315C251.321 75.6429 253.096 79.6204 255.068 79.5812C259.785 70.0334 258.928 71.4788 259.998 66.9006C262.175 63.3206 263.117 62.8257 263.066 60.1062C263.062 59.9022 263.058 59.6983 263.055 59.4943Z" fill="#460073"/>
<path d="M287.246 69.555L287.498 68.4618L287.335 67.0367L287.194 66.7675L287.584 65.8075L287.889 63.9651L288.972 60.0668L289.613 58.0136L289.707 55.7673L289.395 53.6651L288.35 52.3256L287.52 51.594L283.891 50.306L281.25 50.9026L279.695 51.4097L277.081 53.4341L277.031 50.7825L275.99 49.715L275.178 49.9352L273.612 49.8304L272.467 50.3973L270.148 57.3127L269.275 61.4789L268.068 65.9919L266.98 69.6182L266.487 72.3486L266.16 73.0352L266.313 73.9163L266.791 74.0428L267.558 75.0478L268.246 75.4422L268.804 76.1792L270.095 76.1535L270.778 76.276L270.772 75.936L271.38 75.7199L272.04 74.6865L272.751 72.7L273.081 72.1493L273.072 71.6734L273.723 70.1642L273.781 69.6189L275.277 65.9844L276.254 63.7205L276.571 62.49L276.966 61.802L277.542 59.8862L278.071 59.0595L278.844 56.7996L280.334 56.4299L281.492 56.5429L282.114 57.0746L282.469 57.8837L282.301 59.7915L282.005 62.1098L282.042 64.0815L281.842 64.2895L281.92 64.832L281.401 66.1346L281.744 66.3318L281.811 69.8672L281.964 70.7483L281.834 71.091L283.348 75.6178L285.849 78.4245L287.42 78.8014L287.623 78.7293L287.618 78.4574L288.299 78.5118L288.716 78.9796L289.184 78.5622L289.726 78.4154L289.305 77.7437L287.74 74.1021L287.304 72.6145L287.246 69.555Z" fill="#460073"/>
<path d="M335.283 67.6469C335.271 67.035 335.121 66.2899 334.902 65.4781C332.875 66.1985 331.929 66.5574 331.931 66.6254C331.183 66.6403 330.836 66.3071 330.822 65.5592L331.429 61.6704C331.795 59.4187 331.973 58.0549 331.965 57.6469C331.956 57.171 331.309 55.2795 331.032 55.013C330.965 55.0823 330.762 55.1544 330.49 55.1598C329.878 55.172 327.667 53.3116 327.395 53.317C327.123 53.3224 326.515 53.5386 326.243 53.544L321.63 64.994C320.785 67.0512 320.338 68.6244 317.783 70.1716C316.773 70.7358 316.1 71.0892 315.768 71.5039L315.36 71.5121C315.288 71.3094 313.714 70.7966 313.709 70.5247C313.641 66.9213 316.54 61.9667 316.525 61.1508C316.521 60.9469 316.449 60.7442 316.377 60.5416C316.579 60.4016 316.781 60.3296 316.916 60.2589C317.69 57.999 318.337 56.2858 318.861 55.1872C318.779 54.4407 318.564 53.9008 318.354 53.5649C318.399 52.3398 318.454 51.6586 318.45 51.4546C318.444 51.1147 319.028 49.6068 319.021 49.2668C319.001 48.179 318.081 46.2929 317.197 46.3105C316.245 46.3295 314.24 51.8104 314.251 52.3543C312.002 55.7317 312.163 57.0888 311.557 57.3729C310.536 60.9299 310.07 61.4833 309.132 62.2501C307.775 66.0179 308.11 69.3439 308.146 71.2475C308.166 72.3353 311.895 75.3217 312.74 76.8692C314.314 77.382 315.407 77.6323 316.019 77.6201C316.155 77.6174 320.61 75.8284 320.745 75.7578C322.015 74.5763 323.732 71.8895 325.831 67.767C326.03 67.491 326.231 67.3509 326.435 67.3469C326.843 67.3388 328.253 69.9632 328.935 70.0857C330.644 70.5278 331.872 70.7074 332.551 70.6938C334.523 70.6546 335.275 67.239 335.283 67.6469Z" fill="#460073"/>
<path d="M357.502 45.7805L357.486 44.8967C357.35 44.8994 357.214 44.9021 357.078 44.9048C355.378 44.9386 350.27 40.9595 350.478 41.1594C348.872 42.5516 347.667 43.5958 346.863 44.2239C346.821 45.585 346.376 47.2262 345.596 49.1461C344.165 52.6432 343.456 54.6977 343.465 55.1737C343.434 57.1467 343.392 58.5078 343.408 59.3916C341.766 62.4849 338.208 64.9362 334.859 67.6554C334.319 67.8701 327.247 71.5476 326.125 73.4062C325.538 74.7102 325.149 75.7381 324.959 76.49C327.127 76.0388 331.732 71.3903 332.48 71.3754C333.296 71.3592 333.777 71.6216 333.993 72.2295C335.576 76.8229 338.627 76.3541 339.679 78.0335C342.618 78.7912 344.588 78.684 346.424 78.6474C346.9 78.638 347.39 79.3764 348.811 75.4033C349.458 73.6221 349.777 72.5275 349.769 72.1196L348.646 66.6328C347.899 63.111 347.525 61.2821 347.522 61.1461C347.432 56.387 353.213 52.7352 354.955 51.3403C356.69 49.6054 357.54 47.7522 357.502 45.7805ZM345.472 71.4569C345.404 71.4583 345 71.6704 344.728 71.6758C343.98 71.6907 340.489 70.4679 339.877 70.4801C339.605 70.4855 339.405 70.6935 339.201 70.6976C338.861 70.7043 338.027 69.7687 337.755 69.7741C337.415 69.7809 336.471 70.2078 336.131 70.2145C335.655 70.224 335.107 70.0309 334.419 69.5685L343.464 62.3151C344.745 65.3502 345.397 67.4457 345.418 68.6014L345.472 71.4569Z" fill="#460073"/>
<path d="M399.834 51.8755C399.8 50.1078 396.718 48.9449 396.787 49.0116C393.302 48.1287 393.965 47.2314 392.333 47.2638C391.156 46.131 390.262 45.6047 389.514 45.6196C387.134 45.667 384.274 49.0565 380.629 54.1621C378.021 56.5264 378.45 57.6061 376.908 58.793C373.213 64.8517 373.075 64.7184 372.835 66.4236C372.101 67.1863 371.498 67.6744 370.958 67.8892C370.514 69.5983 370.332 70.7582 370.346 71.5061C370.395 74.0896 372.176 74.7343 372.972 77.303C373.549 79.0598 375.538 79.9044 375.674 79.9017C376.693 79.8814 377.567 79.3199 378.432 78.2825C383.01 75.811 384.219 75.0388 384.668 73.6015C389.017 69.7743 389.807 68.3983 390.555 68.3834C390.759 68.3793 390.966 68.5112 391.175 68.7791C390.917 69.5324 390.737 70.8282 390.774 72.7999C390.817 75.0435 391.037 75.9233 392.492 77.3226C393.254 78.0556 393.74 78.59 393.95 78.9259C393.803 78.3167 393.793 77.7728 393.784 77.2969C393.776 76.889 393.77 76.549 393.831 76.2078L394.609 70.5472C394.968 67.9555 395.341 66.1117 395.797 65.0144C397.159 61.5186 398.02 56.6726 399.087 55.5631C399.204 54.5406 399.259 53.8594 399.318 53.3821C399.312 53.0421 399.837 52.0795 399.834 51.8755ZM392.172 53.1162C392.108 53.3215 392.043 53.5268 391.977 53.5962C391.771 53.5323 391.633 53.399 391.564 53.3324C391.632 53.331 392.104 53.1176 392.172 53.1162ZM391.108 54.4296C391.04 54.431 390.584 55.4603 389.806 57.5161C388.667 58.423 386.423 62.0723 386.436 62.7522C382.901 66.4273 382.162 66.9181 381.701 67.7434C378.822 70.1132 376.899 72.7359 375.879 72.7562C375.539 72.763 375.4 72.6297 375.393 72.2218C375.371 71.066 379.141 65.4139 379.67 64.5872C384.923 58.2254 386.785 56.0119 388.331 55.029C389.334 54.1249 390.073 53.6341 390.413 53.6273C390.889 53.6178 391.098 53.8857 391.108 54.4296Z" fill="#460073"/>
<path d="M428.031 46.0094L427.555 46.0188C423.496 47.1878 422.211 47.5535 419.22 47.613C418.336 47.6306 417.451 47.5802 416.496 47.4631C416.353 47.0579 416.281 46.8553 416.213 46.8567C416.213 46.8567 416.145 46.858 416.146 46.926C417.773 43.0169 418.527 39.7372 420.363 36.096C420.622 35.4107 420.816 34.8627 420.875 34.3855L421.338 33.6961C421.127 33.3602 418.525 32.3918 418.117 32.3999C417.845 32.4053 416.966 32.6949 416.694 32.7003C416.141 32.2352 415.728 31.9714 415.456 31.9768L415.388 31.9781L414.844 31.989C414.352 34.7193 413.858 37.3816 412.924 38.3524C411.395 43.8239 410.725 44.3814 410.748 45.6051C409.768 47.7331 409.707 48.0743 409.24 48.5597C406.72 48.4058 404.951 48.373 403.796 48.396C402.776 48.4163 402.849 48.6869 402.108 49.0417C405.512 52.8507 407.105 54.3834 407.115 54.9273C405.872 57.5365 405.559 58.971 405.5 59.4483C403.282 64.4574 403.105 69.4939 403.113 69.9018C403.185 70.1045 403.256 70.3071 403.327 70.4417C403.337 70.9856 403.02 72.2161 403.031 72.76C403.173 73.0973 403.313 73.2985 403.451 73.4318C403.332 74.3184 403.277 74.9996 403.218 75.4769C403.245 76.9046 403.34 78.331 403.571 79.7547C405.233 77.7492 405.917 74.3349 406.25 73.9882C406.316 73.8509 406.312 73.6469 406.307 73.375C406.302 73.103 406.295 72.7631 406.218 72.2885C406.208 71.7446 406.401 71.1287 406.726 70.374C407.129 70.094 408.35 66.3289 408.943 65.2969C409.073 64.9543 409.134 64.613 409.13 64.409L409.581 63.0398C410.307 61.8691 410.631 61.0465 410.622 60.5706C412.525 56.86 412.781 56.0388 413.298 54.6002C417.47 52.2047 420.128 52.4919 420.45 51.5333C422.819 50.942 422.527 49.8596 423.138 49.8475C423.407 49.6381 426.58 48.4187 426.907 47.7321C426.839 47.7334 426.703 47.7361 426.501 47.8082L426.093 47.8163C425.821 47.8217 425.615 47.7578 425.544 47.5552C425.81 47.2778 427.967 46.2147 428.031 46.0094Z" fill="#460073"/>
<path d="M467.224 45.2295L466.748 45.2389C462.69 46.4079 461.404 46.7735 458.413 46.8331C457.529 46.8507 456.644 46.8003 455.689 46.6832C455.546 46.278 455.474 46.0754 455.406 46.0767C455.406 46.0767 455.338 46.0781 455.339 46.1461C456.966 42.237 457.72 38.9573 459.556 35.3161C459.815 34.6308 460.009 34.0828 460.068 33.6055L460.531 32.9162C460.321 32.5803 457.718 31.6119 457.31 31.62C457.038 31.6254 456.159 31.915 455.887 31.9204C455.334 31.4553 454.921 31.1914 454.649 31.1969L454.581 31.1982L454.038 31.209C453.545 33.9394 453.051 36.6017 452.117 37.5725C450.588 43.044 449.918 43.6014 449.941 44.8252C448.961 46.9531 448.9 47.2944 448.433 47.7798C445.914 47.6259 444.145 47.5931 442.989 47.6161C441.969 47.6364 442.042 47.907 441.301 48.2618C444.705 52.0708 446.298 53.6034 446.308 54.1473C445.065 56.7566 444.752 58.1911 444.693 58.6684C442.475 63.6775 442.298 68.714 442.306 69.1219C442.378 69.3245 442.45 69.5271 442.52 69.6618C442.53 70.2057 442.214 71.4362 442.224 71.9801C442.366 72.3174 442.506 72.5186 442.645 72.6519C442.525 73.5384 442.47 74.2197 442.411 74.6969C442.438 76.1247 442.533 77.5511 442.764 78.9748C444.426 76.9693 445.11 73.555 445.444 73.2083C445.509 73.071 445.505 72.867 445.5 72.5951C445.495 72.3231 445.488 71.9832 445.412 71.5086C445.401 70.9647 445.594 70.3488 445.92 69.5941C446.322 69.3141 447.544 65.549 448.136 64.517C448.266 64.1744 448.327 63.8331 448.324 63.6291L448.774 62.2599C449.5 61.0892 449.824 60.2666 449.815 59.7907C451.718 56.0801 451.974 55.2588 452.491 53.8203C456.663 51.4248 459.321 51.712 459.643 50.7534C462.012 50.1621 461.72 49.0797 462.332 49.0675C462.6 48.8582 465.773 47.6388 466.1 46.9521C466.032 46.9535 465.896 46.9562 465.694 47.0283L465.286 47.0364C465.014 47.0418 464.809 46.9779 464.737 46.7752C465.004 46.4979 467.16 45.4348 467.224 45.2295Z" fill="#460073"/>
<path d="M497.545 67.4786C497.25 66.2602 497.025 65.1085 496.735 64.1621C495.532 65.2742 493.393 67.2892 492.934 68.1825C492.19 68.4013 491.579 68.4815 491.171 68.4896C489.472 68.5234 488.912 67.7184 488.882 66.0867C488.851 64.455 490.765 57.7516 491.921 50.5191C491.644 50.2526 488.22 49.0285 487.88 49.0352C486.996 49.0528 485.453 50.1718 485.131 51.1303C480.258 55.9883 481.587 57.9342 479.17 59.6146C474.735 66.0961 475.718 71.3136 473.678 71.3542C471.775 71.3921 472.261 68.3218 472.248 67.6419C472.234 66.8941 472.294 66.4848 472.292 66.3488L473.362 58.1659C473.777 54.961 480.284 46.5339 480.799 45.0273C482.654 42.4059 482.65 42.2019 482.835 41.1781L484.331 41.1483C484.26 41.0137 484.122 40.8804 484.119 40.7444C484.104 39.9286 485.648 38.8776 486.396 38.8628C486.324 38.6601 486.32 38.4562 486.317 38.2522C486.304 37.5723 486.635 37.0897 487.172 36.7389C487.242 36.8055 487.446 36.8015 487.513 36.8001C487.581 36.7988 487.717 36.7961 487.92 36.724C487.919 36.656 487.163 36.263 487.158 35.991C489.182 35.1346 488.836 34.8014 489.03 34.2535C489.702 33.832 490.239 33.4812 490.643 33.2692C493.08 29.0038 494.992 25.8372 496.307 23.4305C496.264 21.1189 494.909 17.8132 493.481 17.8416C493.209 17.8471 493.348 17.9803 493.008 17.9871C492.94 17.9884 490.052 16.3456 489.916 16.3483C489.645 16.3537 489.178 16.8391 488.584 17.8031L487.622 17.2781L486.549 18.1156L485.869 18.1291C485.658 17.7253 485.45 17.5254 485.178 17.5308C482.616 18.738 481.619 19.9821 480.412 20.8903C477.913 25.4289 476.47 28.2461 476.284 29.202C476.293 29.6779 476.301 30.0859 476.374 30.3565C474.445 32.6393 474.316 33.0499 473.997 34.1445C473.203 35.3165 472.809 36.0725 472.817 36.4805C472.821 36.6844 473.045 37.7682 473.055 38.3121C473.059 38.516 473.062 38.652 472.995 38.7214C472.274 40.164 471.625 41.8092 471.052 43.861L469.855 48.9178C469.932 49.3924 470.007 49.799 470.148 50.0682C469.561 51.3722 469.231 51.9228 469.249 52.8747C469.253 53.0786 469.394 53.3479 469.398 53.5518C467.272 56.2467 466.6 56.6681 465.527 57.4376C460.386 62.5729 457.155 64.3376 457.065 66.7878C457.481 67.1876 457.827 67.5208 458.24 67.7846C460.379 65.7697 461.248 65.0042 462.132 64.9867C462.336 64.9826 462.472 64.9799 462.541 65.0465C463.605 63.7331 463.328 63.4666 463.733 63.3225C464.008 63.453 464.146 63.5863 464.283 63.6516L466.769 62.0378C466.905 62.0351 467.109 62.031 467.179 62.0977C467.184 62.3696 467.19 62.7096 467.195 62.9815C467.234 65.0212 468.041 68.1337 468.608 69.3467C468.949 69.4079 469.157 69.6078 469.295 69.7411L469.323 71.2368C469.472 71.914 473.073 75.311 473.685 75.2989L474.568 75.2813C476.734 71.0894 476.749 71.9052 477.713 68.8935C478.827 66.6948 480.312 62.4485 481.177 61.4791C481.522 61.7442 481.729 61.8762 481.868 62.0094C482.066 61.7334 481.825 59.7658 482.981 59.7428C483.185 59.7388 483.253 59.7374 483.254 59.8054L483.257 59.9414C483.706 62.1089 484.046 65.7068 484.046 65.7068C483.914 65.9135 483.783 66.1881 483.788 66.4601C483.813 67.8199 486.283 72.5317 491.246 72.4329C491.246 72.4329 491.987 72.0781 493.474 71.5724C497.473 70.8807 497.155 68.4385 497.545 67.4786ZM488.037 24.8874C487.651 26.0513 486.666 31.5119 484.246 33.0564C480.043 40.9616 476.054 45.8699 474.592 47.6673C477.286 39.044 478.842 35.0003 478.841 34.9323C478.838 34.7963 478.837 34.7283 478.697 34.5271C479.481 32.8111 484.89 27.5345 485.746 26.0212C486.55 25.393 487.292 25.0382 488.037 24.8874Z" fill="#460073"/>
<path d="M519.15 49.6372C519.102 47.1217 514.825 43.8742 511.819 43.1858C511.751 43.1872 510.114 42.9477 507.046 42.5326C506.705 42.4714 505.803 41.5372 505.531 41.5426L504.987 41.5534C504.864 42.236 504.466 42.788 503.725 43.1428L501.639 44.3406C500.105 45.9354 499.04 47.1808 498.377 48.0782L497.172 49.1224C495.03 50.9334 495.928 51.6636 494.718 52.4359C494.155 55.0316 493.328 54.4359 493.342 55.1838C493.029 56.6183 492.776 57.6435 492.514 58.1929C492.548 59.9605 493.248 64.6395 495.545 67.4504C497.563 69.8587 501.585 73.9275 504.576 73.868C512.598 73.7083 517.967 66.2561 518.3 65.9093C518.624 65.0187 518.812 64.1988 518.869 63.5856C518.731 63.5203 518.594 63.455 518.39 63.4591C517.982 63.4672 515.508 65.6929 512.475 67.1815C509.712 68.5287 507.548 69.1839 506.12 69.2123C504.149 69.2516 503.386 68.4506 503.042 68.2534C500.589 68.0301 500.521 68.0315 499.265 66.3561C498.637 65.4845 498.285 64.8794 498.278 64.4714C498.25 62.9757 499.092 60.7825 500.74 57.9612C501.775 58.7567 503.958 59.1214 507.425 59.0524C508.445 59.0321 519.306 57.9318 519.15 49.6372ZM510.428 48.7906C509.982 50.3638 510.015 52.1315 505.582 55.0762C503.768 56.2686 502.691 56.8341 502.215 56.8436C502.147 56.8449 501.668 56.7184 500.779 56.4641C502.834 53.6346 503.811 51.3027 507.241 49.2621L509.189 47.9991C509.461 47.9937 509.874 48.2575 510.428 48.7906Z" fill="#460073"/>
<path d="M574.593 65.9454C574.298 64.727 574.072 63.5753 573.783 62.6289C572.579 63.741 570.441 65.756 569.982 66.6493C569.238 66.8681 568.627 66.9483 568.219 66.9564C566.52 66.9902 565.96 66.1852 565.929 64.5535C565.899 62.9218 567.813 56.2184 568.969 48.9859C568.692 48.7194 565.268 47.4953 564.928 47.502C564.044 47.5196 562.501 48.6385 562.179 49.5971C557.306 54.4551 558.635 56.401 556.218 58.0814C551.783 64.5629 552.766 69.7804 550.726 69.821C548.822 69.8589 549.309 66.7886 549.296 66.1087C549.282 65.3609 549.342 64.9516 549.34 64.8156L550.41 56.6327C550.825 53.4278 557.332 45.0007 557.847 43.4941C559.702 40.8727 559.698 40.6687 559.883 39.6449L561.379 39.6151C561.308 39.4805 561.17 39.3472 561.167 39.2112C561.152 38.3954 562.696 37.3444 563.444 37.3296C563.372 37.1269 563.368 36.923 563.364 36.719C563.352 36.0391 563.683 35.5565 564.22 35.2057C564.289 35.2723 564.493 35.2683 564.561 35.2669C564.629 35.2656 564.765 35.2629 564.968 35.1908C564.967 35.1228 564.211 34.7298 564.206 34.4578C566.23 33.6014 565.884 33.2682 566.078 32.7202C566.75 32.2988 567.287 31.948 567.691 31.736C570.127 27.4706 572.04 24.304 573.355 21.8973C573.311 19.5857 571.957 16.28 570.529 16.3084C570.257 16.3139 570.396 16.4471 570.056 16.4539C569.988 16.4552 567.1 14.8124 566.964 14.8151C566.692 14.8205 566.225 15.3059 565.631 16.2699L564.669 15.7449L563.597 16.5824L562.917 16.5959C562.706 16.1921 562.498 15.9922 562.226 15.9976C559.664 17.2048 558.667 18.4489 557.46 19.3571C554.961 23.8957 553.518 26.7129 553.332 27.6688C553.341 28.1447 553.349 28.5527 553.422 28.8233C551.493 31.1061 551.364 31.5167 551.045 32.6113C550.251 33.7833 549.857 34.5393 549.865 34.9473C549.869 35.1512 550.093 36.235 550.103 36.7789C550.107 36.9828 550.11 37.1188 550.043 37.1881C549.322 38.6308 548.673 40.276 548.1 42.3278L546.903 47.3846C546.98 47.8592 547.055 48.2658 547.196 48.535C546.609 49.839 546.279 50.3896 546.297 51.3415C546.301 51.5454 546.442 51.8147 546.446 52.0186C544.32 54.7135 543.648 55.1349 542.574 55.9044C537.434 61.0397 534.203 62.8043 534.113 65.2546C534.529 65.6544 534.875 65.9876 535.288 66.2514C537.427 64.2365 538.296 63.471 539.18 63.4535C539.384 63.4494 539.52 63.4467 539.589 63.5133C540.653 62.1999 540.376 61.9334 540.781 61.7893C541.056 61.9198 541.194 62.0531 541.331 62.1184L543.817 60.5046C543.953 60.5019 544.157 60.4978 544.227 60.5645C544.232 60.8364 544.238 61.1764 544.243 61.4483C544.282 63.488 545.088 66.6005 545.655 67.8135C545.997 67.8747 546.204 68.0746 546.343 68.2079L546.371 69.7036C546.52 70.3808 550.121 73.7778 550.732 73.7656L551.616 73.7481C553.782 69.5562 553.797 70.372 554.76 67.3602C555.875 65.1616 557.359 60.9153 558.225 59.9458C558.57 60.211 558.777 60.3429 558.915 60.4762C559.114 60.2002 558.873 58.2326 560.029 58.2096C560.233 58.2056 560.301 58.2042 560.302 58.2722L560.305 58.4082C560.754 60.5757 561.093 64.1736 561.093 64.1736C560.961 64.3803 560.831 64.6549 560.836 64.9269C560.861 66.2867 563.331 70.9985 568.294 70.8997C568.294 70.8997 569.035 70.5449 570.522 70.0392C574.521 69.3475 574.203 66.9053 574.593 65.9454ZM565.085 23.3541C564.699 24.5181 563.714 29.9787 561.294 31.5232C557.09 39.4284 553.102 44.3367 551.64 46.1341C554.334 37.5108 555.89 33.4671 555.889 33.3991C555.886 33.2631 555.885 33.1951 555.745 32.9939C556.529 31.2779 561.938 26.0013 562.794 24.488C563.598 23.8598 564.34 23.505 565.085 23.3541Z" fill="#460073"/>
<path d="M596.198 48.104C596.15 45.5885 591.872 42.3409 588.867 41.6526C588.799 41.654 587.162 41.4145 584.094 40.9994C583.752 40.9382 582.851 40.004 582.579 40.0094L582.035 40.0202C581.912 40.7028 581.514 41.2548 580.773 41.6096L578.687 42.8074C577.153 44.4022 576.088 45.6476 575.425 46.545L574.22 47.5892C572.078 49.4002 572.976 50.1304 571.766 50.9027C571.203 53.4984 570.376 52.9027 570.39 53.6506C570.077 55.0851 569.824 56.1103 569.562 56.6596C569.596 58.4273 570.296 63.1063 572.593 65.9172C574.611 68.3255 578.632 72.3943 581.624 72.3348C589.646 72.1751 595.015 64.7228 595.348 64.3761C595.672 63.4855 595.86 62.6656 595.917 62.0524C595.779 61.9871 595.642 61.9218 595.438 61.9259C595.03 61.934 592.556 64.1597 589.523 65.6483C586.76 66.9955 584.596 67.6507 583.168 67.6791C581.197 67.7184 580.434 66.9174 580.09 66.7202C577.637 66.4969 577.569 66.4983 576.313 64.8229C575.685 63.9513 575.333 63.3461 575.326 62.9382C575.297 61.4425 576.14 59.2493 577.787 56.428C578.823 57.2235 581.006 57.5882 584.473 57.5192C585.493 57.4989 596.354 56.3986 596.198 48.104ZM587.476 47.2574C587.03 48.8306 587.063 50.5983 582.63 53.543C580.816 54.7354 579.739 55.3009 579.263 55.3104C579.195 55.3117 578.716 55.1852 577.827 54.9309C579.882 52.1014 580.858 49.7695 584.289 47.7289L586.237 46.4659C586.509 46.4605 586.922 46.7243 587.476 47.2574Z" fill="#460073"/>
<path d="M624.603 47.4027C624.57 45.6351 621.488 44.4722 621.557 44.5388C618.072 43.656 618.735 42.7586 617.103 42.7911C615.926 41.6583 615.032 41.1319 614.284 41.1468C611.904 41.1942 609.044 44.5838 605.399 49.6893C602.791 52.0536 603.22 53.1333 601.678 54.3202C597.983 60.3789 597.845 60.2457 597.605 61.9508C596.871 62.7135 596.268 63.2016 595.728 63.4164C595.284 65.1256 595.102 66.2854 595.116 67.0333C595.165 69.6168 596.945 70.2615 597.742 72.8302C598.319 74.5871 600.307 75.4317 600.443 75.429C601.463 75.4087 602.337 74.8472 603.201 73.8098C607.78 71.3382 608.989 70.566 609.438 69.1288C613.787 65.3015 614.577 63.9255 615.325 63.9106C615.529 63.9065 615.735 64.0385 615.944 64.3064C615.687 65.0596 615.507 66.3555 615.544 68.3271C615.587 70.5707 615.807 71.4505 617.262 72.8498C618.024 73.5828 618.51 74.1173 618.72 74.4531C618.573 73.844 618.562 73.3 618.553 72.8241C618.546 72.4162 618.539 72.0763 618.601 71.735L619.378 66.0744C619.738 63.4827 620.111 61.6389 620.566 60.5417C621.929 57.0459 622.79 52.1998 623.857 51.0903C623.974 50.0678 624.029 49.3866 624.088 48.9093C624.081 48.5694 624.607 47.6067 624.603 47.4027ZM616.941 48.6434C616.877 48.8487 616.813 49.0541 616.747 49.1234C616.541 49.0595 616.403 48.9262 616.333 48.8596C616.401 48.8582 616.873 48.6448 616.941 48.6434ZM615.878 49.9568C615.81 49.9582 615.353 50.9875 614.576 53.0434C613.437 53.9502 611.193 57.5996 611.206 58.2794C607.671 61.9545 606.932 62.4453 606.471 63.2706C603.591 65.6404 601.669 68.2632 600.649 68.2835C600.309 68.2902 600.17 68.157 600.163 67.749C600.141 66.5932 603.911 60.9411 604.439 60.1144C609.692 53.7527 611.555 51.5392 613.101 50.5562C614.104 49.6521 614.843 49.1613 615.183 49.1545C615.659 49.145 615.868 49.4129 615.878 49.9568Z" fill="#460073"/>
<path d="M633.119 40.1599L632.311 40.5841L630.917 42.3801L629.093 46.6333L626.676 55.5231L624.923 63.5836L624.957 65.3513L624.242 67.1338L624.529 67.9443L624.737 68.1442L624.677 68.5535L624.967 69.4999L626.158 71.3805L626.303 71.8538L626.99 72.1802L627.802 71.96L628.51 69.8375L629.821 70.8316L630.152 70.3489L630.777 67.4119L630.755 66.2561L631.297 62.5726L632.752 56.7625L634.058 53.8799L635.98 51.1892L637.584 49.7289L639.605 48.6685L641.503 48.3587L642.387 48.3411L645.458 48.8921L646.486 49.2798L646.77 49.9542L647.793 50.0699L648.861 49.0284L648.856 48.7565L649.723 47.8551L649.568 46.838L648.584 45.1572L647.547 44.2257L644.664 42.8547L643.095 42.6139L639.832 42.6788L637.464 43.3381L635.713 44.2571L635.832 43.3705L635.799 41.6029L634.343 40.1355L633.119 40.1599Z" fill="#460073"/>
<path d="M674.787 41.0991L674.312 41.1085C670.253 42.2775 668.968 42.6432 665.976 42.7027C665.092 42.7203 664.207 42.6699 663.253 42.5528C663.109 42.1476 663.037 41.945 662.969 41.9464C662.969 41.9464 662.901 41.9477 662.903 42.0157C664.529 38.1066 665.284 34.8269 667.119 31.1857C667.378 30.5004 667.572 29.9524 667.631 29.4752L668.094 28.7858C667.884 28.4499 665.281 27.4815 664.873 27.4896C664.601 27.495 663.723 27.7846 663.451 27.79C662.898 27.3249 662.485 27.0611 662.213 27.0665L662.145 27.0678L661.601 27.0787C661.108 29.809 660.614 32.4713 659.681 33.4421C658.151 38.9136 657.482 39.4711 657.505 40.6948C656.525 42.8228 656.463 43.164 655.996 43.6494C653.477 43.4955 651.708 43.4627 650.552 43.4857C649.532 43.506 649.605 43.7766 648.864 44.1314C652.268 47.9404 653.862 49.473 653.872 50.017C652.629 52.6262 652.316 54.0607 652.257 54.538C650.039 59.5471 649.862 64.5836 649.869 64.9915C649.941 65.1941 650.013 65.3968 650.084 65.5314C650.094 66.0753 649.777 67.3058 649.787 67.8497C649.93 68.187 650.069 68.3882 650.208 68.5215C650.089 69.4081 650.033 70.0893 649.974 70.5666C650.001 71.9943 650.096 73.4207 650.327 74.8444C651.99 72.8389 652.673 69.4246 653.007 69.0779C653.072 68.9406 653.069 68.7366 653.063 68.4647C653.058 68.1927 653.052 67.8528 652.975 67.3782C652.965 66.8343 653.157 66.2184 653.483 65.4637C653.886 65.1837 655.107 61.4186 655.7 60.3866C655.829 60.044 655.891 59.7027 655.887 59.4987L656.337 58.1295C657.063 56.9588 657.388 56.1362 657.379 55.6603C659.281 51.9497 659.538 51.1284 660.055 49.6899C664.226 47.2944 666.884 47.5816 667.206 46.623C669.576 46.0317 669.283 44.9493 669.895 44.9372C670.163 44.7278 673.337 43.5084 673.664 42.8218C673.596 42.8231 673.46 42.8258 673.257 42.8979L672.849 42.906C672.577 42.9114 672.372 42.8475 672.3 42.6449C672.567 42.3675 674.723 41.3044 674.787 41.0991Z" fill="#460073"/>
<path d="M70.1185 107.002C70.0326 102.447 69.3849 96.9509 64.8978 97.0401C63.8024 96.6539 62.9801 96.3301 62.4311 96.069L60.3825 95.6337C59.6231 95.0367 59.1395 94.6382 58.9343 94.5743C58.0748 95.8837 57.4745 96.5077 57.1345 96.5145C56.8626 96.5199 56.2469 96.3281 55.9749 96.3335C55.0231 96.3525 46.3502 105.299 45.2944 107.02C42.9867 110.875 42.9982 111.487 41.2587 113.018C41.2626 113.222 41.6256 114.439 41.6307 114.711C41.6474 115.594 40.2966 116.097 39.958 116.172C39.9733 116.988 39.6052 119.104 39.6205 119.92C39.6244 120.124 40.04 120.523 40.0451 120.795C40.049 120.999 39.9181 121.274 39.7206 121.618C40.0695 122.087 40.0168 126.509 42.8042 126.454C42.8722 126.452 42.9402 126.451 43.0082 126.449L45.5634 128.507C45.8392 128.706 46.5896 128.827 47.7454 128.804C50.1249 128.756 51.8785 127.973 53.142 126.452C54.2952 126.293 54.9058 126.213 55.0405 126.142C64.8037 120.915 67.6849 118.613 68.7407 113.287C69.7233 111.295 70.1608 109.246 70.1185 107.002ZM62.4873 106.27C61.9473 106.485 61.6907 107.306 61.7202 108.87C61.1147 109.222 60.3796 113.521 60.1179 114.071C59.0699 116.2 58.4144 117.505 58.0808 117.852C57.0713 118.416 56.2619 118.772 55.5178 118.991C52.4302 121.161 49.5953 122.306 47.0798 122.356C46.3319 122.371 45.2916 121.303 45.2775 120.555C45.2685 120.079 46.359 116.589 46.6258 116.311C49.0143 113.135 51.063 109.966 56.3455 105.168C58.5519 103.152 59.9617 102.171 60.5735 102.159C61.3214 102.144 61.8909 103.493 61.9063 104.309C61.9127 104.649 61.8486 104.854 61.7164 105.061C61.9242 105.261 62.2 105.459 62.4732 105.522L62.4873 106.27Z" fill="#460073"/>
<path d="M87.8143 105.222C87.8092 104.95 87.7373 104.747 87.6001 104.682C87.3974 104.754 87.3345 105.027 87.341 105.367C87.4769 105.365 87.6116 105.294 87.8143 105.222ZM104.328 75.6474C100.845 74.9006 99.3392 74.3864 99.3354 74.1825C99.3354 74.1825 99.3354 74.1825 99.4034 74.1811C99.2674 74.1838 99.1994 74.1852 99.2007 74.2532L98.9967 74.2572C98.6568 74.264 97.9692 73.8696 96.7994 73.1447C95.9925 73.6369 95.3883 74.057 95.0522 74.2677C92.9574 78.5942 91.2487 81.7569 89.9287 83.8915C90.0005 84.0942 90.0031 84.2301 90.0056 84.3661C90.0172 84.978 89.6182 85.462 88.8755 85.7489C87.1835 89.7953 86.4009 91.5793 85.2002 92.8274C85.4735 92.89 85.6851 93.2938 85.6903 93.5658C85.721 95.1975 84.1124 96.4537 84.1124 96.4537C84.115 96.5897 84.2599 97.0629 84.2702 97.6068C84.2868 98.4907 82.8116 99.6082 82.4768 99.887C81.9162 102.619 81.9585 104.862 80.6744 105.296C80.6898 106.112 80.2408 107.549 78.9926 109.886C78.9311 110.228 78.9362 110.499 78.9413 110.771C78.9426 110.839 78.9439 110.907 78.9452 110.975C77.1403 112.644 72.7288 113.14 71.8501 113.429C70.7688 113.791 69.0165 114.642 68.5406 114.651C68.2686 114.657 68.402 114.518 68.1301 114.523C67.7902 114.53 66.7768 114.89 66.5048 114.896C66.0969 114.904 65.7531 114.707 65.4055 114.305C64.5512 115.887 64.0291 117.053 63.9726 117.667C66.1071 119.052 66.6548 119.246 67.0076 119.919C68.7906 120.699 69.7527 121.224 69.8258 121.495C70.9789 124.941 71.5946 128.737 71.6702 132.748C71.7022 134.448 70.3847 140.324 70.4001 141.139C70.4065 141.479 70.681 141.61 71.2929 141.598C71.4969 141.594 71.6315 141.523 71.7662 141.452C72.4064 139.331 73.398 137.815 74.7423 136.972C75.7994 131.714 76.5602 125.17 79.7453 124.562L79.7389 124.222C79.1219 123.962 78.7102 123.767 78.369 123.705C78.8308 122.948 79.0257 122.468 79.0219 122.264C79.0206 122.196 79.0181 122.06 78.9488 121.994C81.2899 119.907 80.2227 117.411 81.5696 116.704C82.542 114.168 81.0539 114.606 85.359 112.072C87.2421 110.946 88.3196 110.381 88.6595 110.374C90.0873 110.346 88.7583 112.004 90.195 112.452C89.991 112.456 89.8589 112.663 89.8678 113.139C91.5611 112.765 96.101 104.649 95.8444 105.47C95.9073 105.197 95.9675 104.788 95.9573 104.244C95.9291 102.748 95.9958 102.679 93.9909 100.95C94.1294 101.083 94.1987 101.15 94.2012 101.286C94.2269 102.646 90.8647 104.685 91.0007 104.682C90.7441 105.504 89.1804 105.535 88.7943 106.699C88.1196 106.984 87.6475 107.198 87.3101 107.34L87.0343 107.142C87.2357 107.002 87.3012 106.864 87.2986 106.728C87.296 106.592 86.8843 106.397 86.8843 106.397C86.6867 106.741 86.4173 106.882 86.0787 106.957C85.6656 106.693 85.4578 106.493 85.4565 106.425C85.4463 105.881 87.7733 103.046 87.7694 102.842C87.7643 102.57 87.6925 102.368 87.6219 102.233C88.4878 101.264 89.2857 100.296 89.2755 99.7517C89.2716 99.5477 89.2011 99.4131 89.1318 99.3464C89.3319 99.1384 89.4666 99.0677 89.5333 98.9984C89.5282 98.7264 89.5243 98.5225 89.4538 98.3879C90.0593 98.0357 90.4633 97.8237 90.8007 97.6809L90.7917 97.205L90.1055 96.8786C92.0232 93.9839 91.9527 93.8492 92.7532 93.0172C92.4132 93.0239 92.072 92.9627 91.7282 92.7655C93.1919 91.036 93.1919 91.036 94.0052 90.8838C94.3336 90.2652 94.3259 89.8572 94.3195 89.5173C94.3156 89.3133 94.2464 89.2467 94.1771 89.1801C95.0443 88.2786 95.1123 88.2773 95.9794 87.3758C95.9781 87.3079 95.7703 87.108 95.7678 86.972C95.7639 86.768 98.4116 82.9066 98.4129 82.9746C98.3988 82.2267 99.0646 81.4653 100.413 80.8264C101.172 81.4234 101.521 81.8925 101.529 82.3004C101.533 82.5044 101.467 82.6417 101.267 82.8498C102.813 81.8668 103.881 80.8253 104.405 79.7267C104.337 79.7281 104.269 79.7294 104.269 79.7294C103.997 79.7348 103.79 79.6029 103.717 79.3323L104.328 75.6474ZM78.9705 126.754L78.7576 126.282L78.5549 126.354L78.7666 126.758L78.9705 126.754ZM92.1846 109.76C91.5214 110.657 90.9916 111.416 90.6606 111.899C90.5914 111.832 90.5901 111.764 90.5888 111.696C90.5824 111.356 91.1135 110.665 92.1846 109.76ZM86.6367 107.694L86.2287 107.702C86.0261 107.774 85.8901 107.777 85.8221 107.778C86.0902 107.569 86.2903 107.361 86.4237 107.222C86.5623 107.355 86.6328 107.49 86.6367 107.694ZM76.6758 116.87C75.8561 120.287 74.8517 121.123 74.8645 121.803C74.867 121.939 74.9376 122.073 75.0081 122.208C74.5386 122.557 74.3424 122.969 74.3513 123.445L74.3757 124.737C73.6637 126.656 73.3481 127.954 72.7452 128.442C72.2603 127.976 72.0423 127.232 72.0231 126.212C71.9872 124.308 72.6735 124.635 72.6606 123.955C72.6478 123.275 72.5235 120.285 72.4568 120.354C72.4568 120.354 72.458 120.422 72.4619 120.626C72.5299 120.625 72.6633 120.486 72.8621 120.21C72.7928 120.144 72.7903 120.008 72.7877 119.872C72.7621 118.512 74.5054 117.185 76.064 116.882L76.6758 116.87Z" fill="#460073"/>
<path d="M137.95 117.691L139.135 115.627L138.396 112.513C137.168 115.87 135.417 116.789 134.814 117.277C131.726 119.447 126.34 122.343 122.804 122.413C118.725 122.494 118.221 121.008 118.67 115.966C118.779 114.536 119.88 111.589 122.04 107.125C124.526 101.907 126.653 99.2799 128.489 99.2434C128.965 99.2339 130.2 99.8215 130.676 99.812C131.016 99.8052 131.894 99.5157 132.166 99.5103L132.28 98.3518C129.362 95.0772 126.819 93.6315 125.174 92.9841C124.711 93.6735 124.578 93.8121 122.133 93.9968C117.577 101.297 118.622 98.9637 117.552 99.9371C117.39 102.185 116.469 103.835 115.332 104.878C114.826 106.861 113.281 107.912 113.283 107.98C112.962 109.006 112.713 110.235 112.606 111.802C112.047 118.206 115.449 121.879 117.116 123.751C119.153 127.179 119.832 127.097 121.532 127.063C123.435 127.025 130.702 122.868 133.048 121.053C135.193 119.378 136.535 118.399 137.005 118.05L137.95 117.691Z" fill="#460073"/>
<path d="M171.285 117.98C170.99 116.761 170.764 115.61 170.474 114.663C169.271 115.775 167.133 117.79 166.673 118.684C165.929 118.902 165.319 118.983 164.911 118.991C163.211 119.024 162.652 118.219 162.621 116.588C162.591 114.956 164.505 108.253 165.66 101.02C165.383 100.754 161.96 99.5295 161.62 99.5363C160.736 99.5539 159.193 100.673 158.871 101.631C153.997 106.489 155.326 108.435 152.91 110.116C148.475 116.597 149.457 121.815 147.418 121.855C145.514 121.893 146 118.823 145.988 118.143C145.974 117.395 146.034 116.986 146.031 116.85L147.101 108.667C147.517 105.462 154.023 97.035 154.539 95.5284C156.394 92.907 156.39 92.703 156.575 91.6791L158.07 91.6494C158 91.5147 157.861 91.3815 157.859 91.2455C157.843 90.4296 159.388 89.3787 160.136 89.3638C160.064 89.1612 160.06 88.9573 160.056 88.7533C160.043 88.0734 160.374 87.5907 160.912 87.24C160.981 87.3066 161.185 87.3025 161.253 87.3012C161.321 87.2998 161.457 87.2971 161.66 87.2251C161.658 87.1571 160.903 86.764 160.898 86.4921C162.922 85.6356 162.576 85.3025 162.769 84.7545C163.442 84.3331 163.979 83.9823 164.383 83.7702C166.819 79.5049 168.732 76.3382 170.047 73.9316C170.003 71.62 168.649 68.3143 167.221 68.3427C166.949 68.3481 167.087 68.4814 166.748 68.4882C166.68 68.4895 163.792 66.8466 163.656 66.8493C163.384 66.8548 162.917 67.3401 162.323 68.3041L161.361 67.7792L160.289 68.6167L159.609 68.6302C159.397 68.2263 159.189 68.0264 158.918 68.0319C156.356 69.2391 155.359 70.4831 154.152 71.3913C151.653 75.9299 150.21 78.7472 150.024 79.7031C150.033 80.179 150.041 80.5869 150.114 80.8575C148.184 83.1404 148.056 83.551 147.737 84.6456C146.943 85.8176 146.549 86.5736 146.556 86.9815C146.56 87.1855 146.785 88.2692 146.795 88.8131C146.799 89.0171 146.801 89.1531 146.735 89.2224C146.014 90.665 145.365 92.3103 144.791 94.3621L143.594 99.4189C143.671 99.8935 143.747 100.3 143.888 100.569C143.301 101.873 142.971 102.424 142.989 103.376C142.993 103.58 143.134 103.849 143.138 104.053C141.012 106.748 140.34 107.169 139.266 107.939C134.126 113.074 130.895 114.839 130.805 117.289C131.22 117.689 131.567 118.022 131.98 118.286C134.118 116.271 134.988 115.505 135.872 115.488C136.076 115.484 136.212 115.481 136.281 115.548C137.344 114.234 137.067 113.968 137.473 113.824C137.747 113.954 137.886 114.087 138.023 114.153L140.509 112.539C140.645 112.536 140.849 112.532 140.918 112.599C140.923 112.871 140.93 113.211 140.935 113.483C140.973 115.522 141.78 118.635 142.347 119.848C142.688 119.909 142.896 120.109 143.035 120.242L143.063 121.738C143.212 122.415 146.812 125.812 147.424 125.8L148.308 125.782C150.473 121.59 150.489 122.406 151.452 119.395C152.567 117.196 154.051 112.95 154.917 111.98C155.262 112.245 155.469 112.377 155.607 112.51C155.806 112.234 155.565 110.267 156.721 110.244C156.925 110.24 156.993 110.238 156.994 110.306L156.996 110.442C157.445 112.61 157.785 116.208 157.785 116.208C157.653 116.415 157.522 116.689 157.527 116.961C157.553 118.321 160.022 123.033 164.985 122.934C164.985 122.934 165.727 122.579 167.213 122.073C171.213 121.382 170.895 118.94 171.285 117.98ZM161.777 75.3884C161.391 76.5523 160.405 82.013 157.986 83.5574C153.782 91.4626 149.794 96.371 148.332 98.1684C151.026 89.5451 152.582 85.5014 152.58 85.4334C152.578 85.2974 152.577 85.2294 152.437 85.0281C153.221 83.3122 158.63 78.0355 159.486 76.5222C160.29 75.8941 161.031 75.5393 161.777 75.3884Z" fill="#460073"/>
<path d="M194.927 99.9617C194.893 98.194 191.811 97.0311 191.88 97.0978C188.395 96.2149 189.058 95.3176 187.426 95.35C186.249 94.2173 185.355 93.6909 184.607 93.7058C182.227 93.7532 179.367 97.1428 175.722 102.248C173.114 104.613 173.543 105.692 172.001 106.879C168.306 112.938 168.168 112.805 167.928 114.51C167.194 115.273 166.591 115.761 166.051 115.975C165.607 117.685 165.425 118.844 165.439 119.592C165.488 122.176 167.268 122.821 168.065 125.389C168.642 127.146 170.63 127.991 170.766 127.988C171.786 127.968 172.66 127.406 173.524 126.369C178.103 123.897 179.312 123.125 179.761 121.688C184.11 117.86 184.9 116.484 185.648 116.47C185.852 116.466 186.058 116.597 186.268 116.865C186.01 117.619 185.83 118.914 185.867 120.886C185.91 123.13 186.13 124.009 187.585 125.409C188.347 126.142 188.833 126.676 189.043 127.012C188.896 126.403 188.886 125.859 188.877 125.383C188.869 124.975 188.862 124.635 188.924 124.294L189.701 118.633C190.061 116.042 190.434 114.198 190.889 113.101C192.252 109.605 193.113 104.759 194.18 103.649C194.297 102.627 194.352 101.946 194.411 101.468C194.404 101.128 194.93 100.166 194.927 99.9617ZM187.265 101.202C187.2 101.408 187.136 101.613 187.07 101.682C186.864 101.618 186.726 101.485 186.657 101.419C186.725 101.417 187.197 101.204 187.265 101.202ZM186.201 102.516C186.133 102.517 185.676 103.546 184.899 105.602C183.76 106.509 181.516 110.159 181.529 110.838C177.994 114.513 177.255 115.004 176.794 115.83C173.915 118.199 171.992 120.822 170.972 120.842C170.632 120.849 170.493 120.716 170.486 120.308C170.464 119.152 174.234 113.5 174.763 112.673C180.016 106.312 181.878 104.098 183.424 103.115C184.427 102.211 185.166 101.72 185.506 101.714C185.982 101.704 186.191 101.972 186.201 102.516Z" fill="#460073"/>
<path d="M216.716 114.967L216.968 113.874L216.805 112.449L216.664 112.18L217.053 111.22L217.359 109.377L218.442 105.479L219.083 103.426L219.177 101.18L218.865 99.0773L217.82 97.7378L216.99 97.0062L213.361 95.7181L210.719 96.3148L209.165 96.8218L206.55 98.8462L206.5 96.1947L205.46 95.1272L204.648 95.3474L203.082 95.2425L201.936 95.8095L199.618 102.725L198.745 106.891L197.538 111.404L196.45 115.03L195.957 117.761L195.63 118.447L195.783 119.329L196.261 119.455L197.028 120.46L197.716 120.854L198.274 121.591L199.565 121.566L200.248 121.688L200.241 121.348L200.849 121.132L201.51 120.099L202.221 118.112L202.55 117.562L202.541 117.086L203.193 115.576L203.251 115.031L204.747 111.397L205.724 109.133L206.041 107.902L206.436 107.214L207.012 105.298L207.541 104.472L208.314 102.212L209.803 101.842L210.962 101.955L211.584 102.487L211.939 103.296L211.771 105.204L211.475 107.522L211.512 109.494L211.312 109.702L211.39 110.244L210.871 111.547L211.214 111.744L211.281 115.279L211.434 116.161L211.304 116.503L212.818 121.03L215.319 123.837L216.89 124.214L217.093 124.141L217.088 123.87L217.769 123.924L218.186 124.392L218.654 123.974L219.196 123.828L218.775 123.156L217.21 119.514L216.774 118.027L216.716 114.967Z" fill="#460073"/>
<path d="M245.874 92.3506C245.876 92.4186 245.876 92.4186 245.944 92.4172C245.942 92.3492 245.874 92.3506 245.874 92.3506ZM252.979 115.674L252.574 115.818L251.296 116.592L251.026 116.665L250.087 117.364L249.213 117.925L247.261 118.984L246.79 119.266L246.25 119.48L245.782 119.898L245.174 120.114L244.232 120.677L241.334 122.095L240.997 122.238C241.515 120.867 241.971 119.77 242.294 118.879C242.294 118.879 242.293 118.811 242.361 118.81L242.292 118.811C243.264 116.207 243.383 115.321 243.51 114.842C245.872 110.238 243.646 111.235 246.829 106.886C248.287 104.885 248.145 104.548 248.848 102.153C249.171 101.263 249.298 100.784 249.294 100.58C249.288 100.24 248.599 99.7779 248.587 99.166C248.585 99.03 248.717 98.8233 248.985 98.6139C247.816 97.9571 246.785 97.3655 246.095 96.8351C245.156 97.5339 244.69 98.0873 244.629 98.4286C244.635 98.7685 244.64 99.0405 244.711 99.1751C242.942 102.747 242.302 101.263 239.763 107.299C236.927 111.98 237.974 113.388 235.008 114.807C227.755 119.712 227.013 120.067 223.682 120.134L223.138 120.144C223.207 120.211 223.21 120.347 223.279 120.414C223.281 120.482 223.214 120.551 223.01 120.555C222.592 120.019 222.381 119.683 222.244 119.618C222.176 119.619 221.99 120.575 221.718 120.581C221.717 120.513 221.981 120.099 221.977 119.895C221.976 119.827 221.907 119.761 221.838 119.694C222.281 117.985 222.529 116.688 222.786 115.867C228.007 107.805 230.455 104.22 231.385 103.045C236.249 97.6432 238.962 93.6444 243.109 93.5619C243.313 93.5578 243.383 93.6924 243.655 93.687C244.539 93.6694 245.672 92.4227 245.874 92.3506C244.914 91.8936 243.817 91.4394 242.593 91.4637L239.398 91.5273C239.058 91.5341 237.987 92.4396 237.784 92.5116C235.343 92.9002 232.267 95.682 229.587 97.8437C229.592 98.1157 229.596 98.3196 229.668 98.5223C229 99.1477 228.397 99.6358 227.925 99.8492C227.81 101.008 225.784 101.728 224.996 103.24C222.856 105.187 221.717 106.094 221.402 107.392C221.275 107.871 221.352 108.346 220.81 108.492L220.82 109.036C220.891 109.171 220.692 109.447 220.693 109.515C220.628 109.652 220.309 110.747 219.765 110.758C219.77 111.03 219.647 111.712 219.652 111.984C219.72 111.983 219.316 112.195 219.384 112.194C219.724 112.187 219.389 112.466 219.391 112.601C219.326 112.739 219.259 112.808 219.261 112.876C219.259 112.808 219.123 112.811 218.715 112.819C218.579 112.822 218.442 112.756 218.237 112.692L218.03 112.561L218.05 113.58C218.729 113.567 217.643 113.656 218.329 113.983L218.608 114.317C217.799 114.742 218.268 114.324 218.201 114.394C217.929 114.399 218.279 114.936 217.726 114.471C217.733 114.811 217.737 115.015 217.67 115.084C217.466 115.088 217.259 114.956 216.981 114.622C216.786 115.102 216.522 115.515 216.392 115.858C216.46 115.856 216.526 115.719 216.866 115.712C217.002 115.71 217.07 115.708 217.071 115.776C217.076 116.048 215.996 116.478 216.001 116.75C216.006 117.022 216.837 117.821 216.839 117.889C216.435 118.101 216.301 118.24 216.305 118.444C216.513 118.644 216.721 118.844 216.79 118.91C219.218 125.051 220.432 124.483 223.695 124.418C226.21 124.368 228.373 123.645 231.782 120.449C232.851 119.475 233.589 118.916 234.13 118.769C234.407 119.036 234.616 119.304 234.623 119.644C234.628 119.916 233.709 121.702 233.648 122.044C233.463 123.068 233.48 123.951 233.562 124.698C233.494 124.699 233.495 124.767 233.427 124.769C233.062 127.02 229.965 128.714 228.723 131.392C224.789 135.551 220.422 142.031 215.693 150.899C215.44 151.924 215.32 152.81 215.331 153.354L215.336 153.626C215.022 154.993 214.909 156.219 214.93 157.375C214.941 157.919 215.02 158.53 215.097 159.004C215.647 159.333 216.603 159.518 217.963 159.491C219.255 159.465 221.789 156.831 223.545 156.183C227.547 151.955 229.685 149.94 232.369 144.378C232.571 144.306 234.15 141.486 234.488 141.343C234.941 140.11 236.653 137.151 237.053 136.735C237.053 136.735 237.315 136.186 237.234 135.507C237.297 135.234 237.891 134.27 237.882 133.794C237.878 133.59 238.844 130.714 238.635 130.446C239.1 129.825 239.144 128.6 239.981 126.067L240.117 126.064L240.452 125.785L242.133 124.799L243.276 124.097L243.682 123.952L245.497 122.828L246.169 122.407L247.309 121.568L248.115 121.008L249.053 120.241L250.324 119.127L250.388 118.922L250.99 118.366L251.725 117.671L251.856 117.397L251.99 117.326L253.055 116.08L252.979 115.674ZM229.948 138.645C229.824 139.259 225.883 146.683 224.891 148.199C224.364 149.094 220.571 153.522 220.367 153.526C219.755 153.538 219.333 152.799 219.102 151.375C219.094 150.967 219.873 148.979 222.054 145.603C224.058 140.054 224.829 137.658 226.526 137.488C226.846 136.462 233.029 128.925 233.977 128.702C233.977 128.702 230.01 138.303 229.948 138.645Z" fill="#460073"/>
<path d="M277.373 98.4571C277.326 95.9416 273.048 92.694 270.043 92.0057C269.975 92.0071 268.338 91.7676 265.269 91.3525C264.928 91.2913 264.026 90.3571 263.754 90.3625L263.211 90.3733C263.087 91.0559 262.69 91.6079 261.948 91.9627L259.862 93.1605C258.328 94.7553 257.264 96.0007 256.6 96.8981L255.396 97.9423C253.254 99.7533 254.151 100.484 252.942 101.256C252.379 103.851 251.551 103.256 251.565 104.004C251.252 105.438 251 106.463 250.738 107.013C250.771 108.78 251.472 113.459 253.769 116.27C255.787 118.679 259.808 122.747 262.799 122.688C270.822 122.528 276.19 115.076 276.524 114.729C276.847 113.839 277.036 113.019 277.092 112.405C276.955 112.34 276.818 112.275 276.614 112.279C276.206 112.287 273.731 114.513 270.699 116.001C267.936 117.349 265.772 118.004 264.344 118.032C262.372 118.071 261.609 117.27 261.265 117.073C258.813 116.85 258.745 116.851 257.489 115.176C256.86 114.304 256.509 113.699 256.501 113.291C256.473 111.796 257.316 109.602 258.963 106.781C259.998 107.577 262.181 107.941 265.649 107.872C266.669 107.852 277.53 106.752 277.373 98.4571ZM268.652 97.6105C268.205 99.1837 268.239 100.951 263.806 103.896C261.992 105.088 260.914 105.654 260.438 105.663C260.37 105.665 259.892 105.538 259.003 105.284C261.058 102.455 262.034 100.123 265.464 98.082L267.413 96.819C267.685 96.8136 268.098 97.0774 268.652 97.6105Z" fill="#460073"/>
<path d="M280.098 110.033L279.494 110.453L279.024 110.803L278.56 111.424L278.565 111.696L278.43 111.767L277.953 111.708L277.682 111.782L277.971 112.66L277.635 112.871L277.848 113.343L277.508 113.349L277.241 113.627L277.386 114.1L277.189 114.444L277.195 114.784L277.059 114.787L276.931 115.197L277.685 115.522L278.784 116.113L278.793 116.588L279.141 116.99L279.009 117.196L279.623 117.32L280.111 117.923L281.831 118.976L283.541 119.487L283.745 119.483L284.971 119.594L285.568 118.766L286.65 118.473L287.457 117.98L287.383 117.642L287.38 117.506L287.723 117.635L287.578 117.162L287.693 116.071L287.404 115.193L287.337 115.194L287.333 114.99L287.537 114.986L287.324 114.514L287.383 114.037L287.312 113.902L286.686 113.167L286.408 112.832L286.201 112.7L285.8 113.048L284.953 111.433L284.679 111.302L284.344 111.581L283.854 110.843L283.582 110.848L283.588 111.188L283.455 111.327L283.384 111.192L283.106 110.858L283.366 110.24L282.621 110.391L282.628 110.731L282.494 110.87L282.154 110.876L280.098 110.033Z" fill="#460073"/>
</svg>
